<svg width="47" height="52" viewBox="0 0 47 52" fill="none" xmlns="http://www.w3.org/2000/svg">
<path d="M1.43005 20.8301V47.3501C1.43005 49.3901 8.87007 51.04 18.0401 51.04C27.2101 51.04 34.6501 49.3901 34.6501 47.3501V33.1101" stroke="#5DC0CF" stroke-width="1.57" stroke-linecap="round" stroke-linejoin="round"/>
<path d="M1.43005 38.51C1.43005 40.55 8.87007 42.2 18.0401 42.2C27.2101 42.2 34.6501 40.55 34.6501 38.51" stroke="#5DC0CF" stroke-width="1.57" stroke-linecap="round" stroke-linejoin="round"/>
<path d="M45.2401 17.3899H24.0601V33.1201H45.2401V17.3899Z" stroke="#5DC0CF" stroke-width="1.57" stroke-linecap="round" stroke-linejoin="round"/>
<path d="M41.11 7.5C41.11 3.93 38.2201 1.04004 34.6501 1.04004C31.0801 1.04004 28.1901 3.93 28.1901 7.5V17.3799" stroke="#5DC0CF" stroke-width="1.57" stroke-linecap="round" stroke-linejoin="round"/>
<path d="M24.0601 17.3899C22.1901 17.2299 20.1601 17.1399 18.0401 17.1399C8.87007 17.1399 1.43005 18.7901 1.43005 20.8301C1.43005 22.8701 8.87007 24.52 18.0401 24.52C20.1601 24.52 22.1901 24.43 24.0601 24.27" stroke="#5DC0CF" stroke-width="1.57" stroke-linecap="round" stroke-linejoin="round"/>
<path d="M1.43005 29.6699C1.43005 31.7099 8.87007 33.3601 18.0401 33.3601C20.1601 33.3601 22.1901 33.2701 24.0601 33.1101" stroke="#5DC0CF" stroke-width="1.57" stroke-linecap="round" stroke-linejoin="round"/>
</svg>
