<svg width="58" height="47" viewBox="0 0 58 47" fill="none" xmlns="http://www.w3.org/2000/svg">
<path d="M50.4302 30.78V36.77" stroke="#5DC0CF" stroke-width="1.57" stroke-linecap="round" stroke-linejoin="round"/>
<path d="M29.28 20.46V30.48" stroke="#5DC0CF" stroke-width="1.57" stroke-linecap="round" stroke-linejoin="round"/>
<path d="M7.57007 30.8101V36.8" stroke="#5DC0CF" stroke-width="1.57" stroke-linecap="round" stroke-linejoin="round"/>
<path d="M29.28 30.8101V36.8" stroke="#5DC0CF" stroke-width="1.57" stroke-linecap="round" stroke-linejoin="round"/>
<path d="M7.57007 30.6699H50.4301" stroke="#5DC0CF" stroke-width="1.57" stroke-linecap="round" stroke-linejoin="round"/>
<path d="M14.3201 40.25H0.830078" stroke="#5DC0CF" stroke-width="1.57" stroke-linecap="round" stroke-linejoin="round"/>
<path d="M14.3201 36.9399H0.830078V45.79H14.3201V36.9399Z" stroke="#5DC0CF" stroke-width="1.57" stroke-linecap="round" stroke-linejoin="round"/>
<path d="M36.0201 40.25H22.54" stroke="#5DC0CF" stroke-width="1.57" stroke-linecap="round" stroke-linejoin="round"/>
<path d="M36.0301 36.9399H22.54V45.79H36.0301V36.9399Z" stroke="#5DC0CF" stroke-width="1.57" stroke-linecap="round" stroke-linejoin="round"/>
<path d="M57.1702 40.25H43.6802" stroke="#5DC0CF" stroke-width="1.57" stroke-linecap="round" stroke-linejoin="round"/>
<path d="M57.1702 36.9399H43.6802V45.79H57.1702V36.9399Z" stroke="#5DC0CF" stroke-width="1.57" stroke-linecap="round" stroke-linejoin="round"/>
<path d="M44.4301 0.790039H13.5701V20.27H44.4301V0.790039Z" stroke="#5DC0CF" stroke-width="1.57" stroke-linecap="round" stroke-linejoin="round"/>
<path d="M44.4301 5.08008H13.5701" stroke="#5DC0CF" stroke-width="1.57" stroke-linecap="round" stroke-linejoin="round"/>
<path d="M29 10.53H39.41" stroke="#5DC0CF" stroke-width="1.57" stroke-linecap="round" stroke-linejoin="round"/>
<path d="M29 14.29H39.41" stroke="#5DC0CF" stroke-width="1.57" stroke-linecap="round" stroke-linejoin="round"/>
<path d="M20.8101 16.1399C22.8866 16.1399 24.5701 14.4565 24.5701 12.3799C24.5701 10.3033 22.8866 8.62012 20.8101 8.62012C18.7335 8.62012 17.05 10.3033 17.05 12.3799C17.05 14.4565 18.7335 16.1399 20.8101 16.1399Z" stroke="#5DC0CF" stroke-width="1.57" stroke-linecap="round" stroke-linejoin="round"/>
</svg>
