<svg width="426" height="111" viewBox="0 0 426 111" fill="none" xmlns="http://www.w3.org/2000/svg">
<path d="M180.86 78.71C179.64 78.52 178.16 78.1799 173.63 78.1799C168.68 78.1799 164.84 79.51 164.84 85.98V105.99C164.84 106.41 165.18 106.75 165.6 106.75H169.33C169.75 106.75 170.09 106.41 170.09 105.99V94.3501H180.4C180.82 94.3501 181.16 94.0101 181.16 93.5901V90.8501C181.16 90.4301 180.82 90.0901 180.4 90.0901H170.09V85.98C170.09 83.47 170.89 82.71 173.1 82.71H180.86C181.28 82.71 181.62 82.37 181.62 81.95V79.52C181.62 78.99 181.43 78.8 180.86 78.72V78.71Z" fill="#002E67"/>
<path d="M199.7 78.1799C193.42 78.1799 188.86 81.68 188.86 90.05V95.1899C188.86 103.56 193.43 107.06 199.7 107.06C205.97 107.06 210.54 103.56 210.54 95.1899V90.05C210.54 81.68 205.97 78.1799 199.7 78.1799ZM205.22 95.1899C205.22 100.21 203.43 102.46 199.7 102.46C195.97 102.46 194.18 100.21 194.18 95.1899V90.05C194.18 85.03 195.97 82.78 199.7 82.78C203.43 82.78 205.22 85.02 205.22 90.05V95.1899Z" fill="#002E67"/>
<path d="M238.81 78.48H235.04C234.62 78.48 234.32 78.79 234.32 79.2V102.37C232.91 102.52 230.59 102.67 229.07 102.67C224.96 102.67 223.97 100.69 223.97 96.3501V79.1899C223.97 78.7699 223.63 78.47 223.21 78.47H219.44C219.02 78.47 218.68 78.7799 218.68 79.1899V96.3501C218.68 104.45 222.94 107.04 229.07 107.04C231.39 107.04 236.18 106.58 237.52 106.39C238.89 106.2 239.57 105.67 239.57 104.07V79.1899C239.57 78.7699 239.23 78.47 238.81 78.47V78.48Z" fill="#002E67"/>
<path d="M258.72 78.1799C256.51 78.1799 252.37 78.5201 250.31 78.8301C249.13 79.0201 248.71 79.36 248.71 80.77V105.99C248.71 106.41 249.01 106.75 249.43 106.75H253.27C253.69 106.75 253.99 106.41 253.99 105.99V83.05C255.25 82.9 257.34 82.75 259.24 82.75C262.89 82.75 264.41 84.5001 264.41 88.8401V106C264.41 106.42 264.68 106.76 265.1 106.76H269.02C269.44 106.76 269.74 106.42 269.74 106V88.8401C269.74 80.7401 265.78 78.1899 258.71 78.1899L258.72 78.1799Z" fill="#002E67"/>
<path d="M287.14 78.1799C284.44 78.1799 280.79 78.4499 279.64 78.6399C278.99 78.7499 278.65 79.0601 278.65 79.8201V105.42C278.65 106.18 278.99 106.48 279.64 106.6C280.78 106.79 284.43 107.06 287.14 107.06C294.75 107.06 299.09 102.95 299.09 95.4199V89.8301C299.09 82.3001 294.75 78.1899 287.14 78.1899V78.1799ZM293.83 95.4099C293.83 101.12 290.94 102.6 287.14 102.6C285.73 102.6 284.74 102.52 283.94 102.49V82.74C284.74 82.7 285.73 82.6299 287.14 82.6299C290.94 82.6299 293.83 84.1101 293.83 89.8201V95.4099Z" fill="#002E67"/>
<path d="M318.8 78.29H316.18C310.93 78.29 307.47 79.9999 307.47 86.3899V105.98C307.47 106.4 307.77 106.74 308.19 106.74H312.03C312.45 106.74 312.75 106.4 312.75 105.98V95.9399H322.26V105.98C322.26 106.4 322.53 106.74 322.95 106.74H326.79C327.21 106.74 327.51 106.4 327.51 105.98V86.3899C327.51 79.9999 324.05 78.29 318.8 78.29ZM322.26 91.49H312.75V86.3899C312.75 83.7299 313.51 82.8899 316.18 82.8899H318.8C321.5 82.8899 322.26 83.7299 322.26 86.3899V91.49Z" fill="#002E67"/>
<path d="M353.01 78.48H334.41C333.99 78.48 333.65 78.79 333.65 79.2V82.21C333.65 82.63 333.99 82.8999 334.41 82.8999H341.07V105.99C341.07 106.41 341.41 106.75 341.83 106.75H345.59C346.01 106.75 346.35 106.41 346.35 105.99V82.8999H353.01C353.43 82.8999 353.77 82.63 353.77 82.21V79.2C353.77 78.78 353.43 78.48 353.01 78.48Z" fill="#002E67"/>
<path d="M365.49 78.48H361.72C361.3 78.48 360.96 78.79 360.96 79.2V105.98C360.96 106.4 361.3 106.74 361.72 106.74H365.49C365.91 106.74 366.25 106.4 366.25 105.98V79.2C366.25 78.78 365.91 78.48 365.49 78.48Z" fill="#002E67"/>
<path d="M385.47 78.1799C379.19 78.1799 374.63 81.68 374.63 90.05V95.1899C374.63 103.56 379.2 107.06 385.47 107.06C391.74 107.06 396.31 103.56 396.31 95.1899V90.05C396.31 81.68 391.74 78.1799 385.47 78.1799ZM390.99 95.1899C390.99 100.21 389.2 102.46 385.47 102.46C381.74 102.46 379.95 100.21 379.95 95.1899V90.05C379.95 85.03 381.74 82.78 385.47 82.78C389.2 82.78 390.99 85.02 390.99 90.05V95.1899Z" fill="#002E67"/>
<path d="M414.66 78.1799C412.45 78.1799 408.31 78.5201 406.25 78.8301C405.07 79.0201 404.65 79.36 404.65 80.77V105.99C404.65 106.41 404.95 106.75 405.37 106.75H409.21C409.63 106.75 409.93 106.41 409.93 105.99V83.05C411.19 82.9 413.28 82.75 415.18 82.75C418.83 82.75 420.35 84.5001 420.35 88.8401V106C420.35 106.42 420.62 106.76 421.04 106.76H424.96C425.38 106.76 425.68 106.42 425.68 106V88.8401C425.68 80.7401 421.72 78.1899 414.65 78.1899L414.66 78.1799Z" fill="#002E67"/>
<path d="M195.54 2.12012C192.32 1.82012 185.12 1.65991 180.6 1.65991C169.87 1.65991 164.28 5.71991 164.28 15.9099V57.6001C164.28 58.4401 164.97 59.1299 165.81 59.1299H169.72C170.57 59.1299 171.25 58.4401 171.25 57.6001V32.54H194.78C195.62 32.54 196.31 31.85 196.31 31.01V28.1001C196.31 27.2601 195.62 26.5701 194.78 26.5701H171.25V15.9199C171.25 10.0999 172.55 7.94995 180.67 7.94995H195.46C196 7.94995 196.3 7.57003 196.3 7.03003V3.19995C196.3 2.73995 195.99 2.20988 195.53 2.12988L195.54 2.12012Z" fill="#002E67"/>
<path d="M212.86 2.18994H208.64C207.8 2.18994 207.26 2.8799 207.26 3.6499V57.6001C207.26 58.4501 207.87 59.1399 208.64 59.1399H212.86C213.7 59.1399 214.24 58.3701 214.24 57.6001V3.6499C214.24 2.8099 213.63 2.18994 212.86 2.18994Z" fill="#002E67"/>
<path d="M283.33 2.18994H279.26C278.42 2.18994 277.8 2.87989 277.8 3.63989V38.74C277.8 49.08 275.73 53.76 267.07 53.76C265.77 53.76 261.71 53.5301 260.02 53.0701V3.57007C260.02 2.73007 259.49 2.18994 258.64 2.18994H254.5C253.66 2.18994 253.05 2.87989 253.05 3.63989V53.0701C251.36 53.5301 247.3 53.76 246 53.76C237.34 53.76 235.27 49.09 235.27 38.74V3.63989C235.27 2.87989 234.58 2.18994 233.81 2.18994H229.75C228.9 2.18994 228.29 2.87989 228.29 3.63989V38.74C228.29 52.07 232.89 59.6599 244.54 59.6599C248.52 59.6599 252.12 59.27 256.49 57.74C260.86 59.27 264.54 59.6599 268.52 59.6599C280.17 59.6599 284.76 52.07 284.76 38.74V3.63989C284.76 2.87989 284.07 2.18994 283.31 2.18994H283.33Z" fill="#5DC0CF"/>
<path d="M317.65 1.65991H313.2C302.17 1.65991 296.73 5.80002 296.73 17.52V57.6001C296.73 58.3601 297.34 59.1299 298.11 59.1299H302.32C303.16 59.1299 303.7 58.3601 303.7 57.6001V34.9199H327.15V57.6001C327.15 58.4401 327.76 59.1299 328.53 59.1299H332.75C333.52 59.1299 334.12 58.3601 334.12 57.6001V17.52C334.12 5.79002 328.61 1.65991 317.65 1.65991ZM327.15 28.79H303.7V17.53C303.7 9.56003 306.23 7.80005 313.2 7.80005H317.65C324.62 7.80005 327.15 9.56003 327.15 17.53V28.79Z" fill="#5DC0CF"/>
<path d="M370.83 34.1499C377.81 32.3099 382.86 27.2599 382.86 18.6699V18.1299C382.86 5.70988 373.51 1.6499 361.4 1.6499C356.96 1.6499 351.21 1.88001 347.91 2.26001C346.53 2.41001 346.07 2.87995 346.07 3.94995V57.5901C346.07 58.4301 346.68 59.1201 347.45 59.1201H351.59C352.44 59.1201 352.97 58.3501 352.97 57.5901V35.0601C357.03 35.2101 358.87 35.29 361.4 35.29H363.39L377.11 58.1299C377.72 59.1199 378.18 59.1201 379.09 59.1201H384C384.62 59.1201 384.99 58.6599 384.99 58.1299C384.99 57.8999 384.92 57.6699 384.76 57.4399L370.81 34.1399L370.83 34.1499ZM361.4 29.3201C359.64 29.3201 356.35 29.2399 352.97 29.1699V8.16992C354.81 7.93992 359.02 7.93994 361.4 7.93994C370.98 7.93994 375.96 10.4699 375.96 18.1299V18.6699C375.96 26.9499 370.83 29.3201 361.4 29.3201Z" fill="#5DC0CF"/>
<path d="M410.37 7.93994H425.16C425.7 7.93994 426 7.56002 426 7.02002V3.18994C426 2.72994 425.69 2.19012 425.23 2.12012C422.01 1.81012 414.81 1.65991 410.29 1.65991C399.56 1.65991 393.97 5.71991 393.97 15.9099V45.4099C393.97 55.5999 399.56 59.6599 410.29 59.6599C414.81 59.6599 422.32 59.59 425.23 59.28C425.69 59.2 426 58.66 426 58.21V54.3C426 53.7701 425.69 53.3799 425.16 53.3799H410.37C402.24 53.3799 400.94 51.2299 400.94 45.4099V32.54H424.47C425.32 32.54 426 31.84 426 31V28.0901C426 27.2501 425.31 26.5601 424.47 26.5601H400.94V15.9099C400.94 10.0899 402.24 7.93994 410.37 7.93994Z" fill="#5DC0CF"/>
<path d="M103.37 10.5801C100.72 9.0101 97.53 7.87005 93.87 7.27005C90.24 6.67005 86.4701 6.66995 82.7701 7.16995C79.0801 7.67995 75.4501 8.69014 72.0501 10.1201C68.6501 11.5501 65.4901 13.4199 62.7601 15.6299C60.0101 17.8499 57.69 20.4301 56 23.2901C54.29 26.1701 53.38 29.0701 53.19 31.8601C53.01 34.6701 53.5701 37.3701 54.8101 39.7901C56.0601 42.2401 58.0001 44.43 60.5601 46.19C63.1501 47.97 66.36 49.3101 70.13 50.0701C73.92 50.8301 77.9 50.93 81.84 50.45C85.79 49.96 89.69 48.8901 93.32 47.3401C96.94 45.7901 100.28 43.7501 103.1 41.3301C105.91 38.9201 108.22 36.1401 109.79 33.0901C111.35 30.0701 112.05 27.06 111.98 24.24C111.91 21.44 111.09 18.81 109.6 16.48C108.14 14.17 106.03 12.1701 103.37 10.5801Z" fill="#5DC0CF"/>
<path d="M122.26 19.61C119.69 15.7 116.06 12.3098 111.53 9.65985C107.06 7.04985 101.7 5.14985 95.59 4.15985C89.54 3.18985 83.3001 3.18996 77.1801 4.02996C71.0701 4.86996 65.0501 6.53986 59.4201 8.91986C53.7801 11.2899 48.5001 14.39 43.9001 18.07C39.2601 21.77 35.29 26.0998 32.32 30.9098C29.31 35.7898 27.6101 40.7299 27.1101 45.5099C26.6001 50.3599 27.3501 55.05 29.2601 59.31C31.2001 63.64 34.34 67.5299 38.57 70.7199C42.86 73.9499 48.28 76.4398 54.7 77.8898C61.19 79.3598 68.0501 79.63 74.8801 78.85C81.7401 78.05 88.53 76.2099 94.84 73.4799C101.13 70.7499 106.91 67.1498 111.78 62.8798C116.62 58.6298 120.53 53.73 123.16 48.36C125.75 43.07 126.83 37.8399 126.6 32.9399C126.37 28.1099 124.86 23.5901 122.26 19.6201V19.61ZM116.38 40.61C114.28 44.79 111.18 48.5898 107.37 51.8998C103.54 55.2298 99 58.0198 94.08 60.1498C89.14 62.2798 83.82 63.7301 78.44 64.3701C73.08 65.0101 67.6801 64.8299 62.5601 63.7399C57.4801 62.6499 53.1701 60.76 49.7201 58.29C46.3101 55.84 43.7601 52.8299 42.1501 49.4599C40.5601 46.1399 39.89 42.4698 40.22 38.6598C40.54 34.8898 41.8301 30.98 44.1701 27.11C46.4901 23.27 49.6201 19.81 53.3101 16.86C56.9801 13.91 61.1901 11.43 65.7201 9.52996C70.23 7.62996 75.0601 6.28004 79.9701 5.61004C84.8901 4.94004 89.9001 4.93992 94.7401 5.72992C99.6201 6.52992 103.9 8.04983 107.44 10.1398C111.03 12.2598 113.9 14.95 115.9 18.05C117.92 21.19 119.08 24.76 119.21 28.55C119.35 32.4 118.45 36.4998 116.37 40.6298L116.38 40.61Z" fill="#5DC0CF"/>
<path d="M141.83 41.9799C141.35 34.9899 139.03 28.49 135.19 22.81C131.43 17.25 126.2 12.4599 119.74 8.72992C113.4 5.07992 105.85 2.44002 97.3001 1.08002C88.8601 -0.259982 80.1801 -0.230109 71.6701 0.949891C63.2101 2.11989 54.8501 4.44993 47.0101 7.73993C39.1501 11.0399 31.7501 15.3399 25.2601 20.4699C18.6901 25.6499 13.0101 31.72 8.65007 38.52C4.22007 45.44 1.56002 52.5098 0.600018 59.3798C-0.389982 66.3898 0.370091 73.2299 2.80009 79.5099C5.29009 85.9299 9.51003 91.76 15.36 96.58C21.33 101.5 28.9801 105.35 38.1601 107.69C47.4701 110.06 57.4 110.62 67.34 109.57C77.34 108.52 87.25 105.85 96.46 101.81C105.64 97.78 114.05 92.45 121.11 86.06C128.08 79.76 133.66 72.49 137.33 64.56C140.93 56.77 142.33 49.1299 141.83 41.9799ZM130.13 56.33C126.98 62.94 122.24 68.9999 116.35 74.2499C110.4 79.5499 103.33 83.99 95.62 87.35C87.89 90.72 79.5801 92.9698 71.1801 93.8898C62.8301 94.8198 54.45 94.42 46.57 92.52C38.79 90.65 32.26 87.5199 27.12 83.4699C22.07 79.4999 18.3701 74.67 16.1401 69.32C13.9601 64.07 13.1801 58.3399 13.9001 52.4199C14.6101 46.6099 16.78 40.6099 20.48 34.7199C24.13 28.9099 28.9501 23.72 34.5501 19.28C40.0901 14.87 46.43 11.18 53.19 8.34003C59.92 5.50003 67.1201 3.49993 74.4101 2.48993C81.7301 1.47993 89.2 1.46982 96.44 2.62982C103.77 3.79982 110.22 6.0799 115.63 9.2099C121.12 12.3899 125.54 16.4699 128.69 21.2099C131.9 26.0199 133.79 31.5099 134.13 37.4099C134.48 43.4099 133.23 49.83 130.13 56.33Z" fill="#5DC0CF"/>
<path d="M60.5601 46.1899C63.1501 47.9699 66.3601 49.3101 70.1301 50.0701C73.9201 50.8401 77.9 50.93 81.84 50.45C85.79 49.96 89.7 48.8901 93.33 47.3401C96.56 45.9601 99.5601 44.1801 102.18 42.0901C87.6701 34.1801 71.2601 29.3201 53.8101 28.3501C53.4801 29.5401 53.27 30.7101 53.2 31.8601C53.02 34.6701 53.5801 37.37 54.8101 39.8C56.0601 42.25 58.0001 44.44 60.5601 46.2V46.1899Z" fill="#002E67"/>
<path d="M38.57 70.72C42.86 73.95 48.28 76.4399 54.7 77.8899C61.19 79.3599 68.0501 79.6201 74.8801 78.8501C81.7401 78.0601 88.53 76.22 94.83 73.48C101.13 70.75 106.9 67.1599 111.78 62.8799C114.87 60.1599 117.58 57.17 119.82 53.97C117.15 51.78 114.38 49.72 111.51 47.78C110.25 49.22 108.86 50.6099 107.36 51.9099C103.52 55.2399 98.9901 58.0299 94.0601 60.1599C89.1201 62.2899 83.8001 63.7399 78.4301 64.3799C73.0701 65.0199 67.6701 64.85 62.5501 63.75C57.4701 62.66 53.15 60.7701 49.71 58.3C46.3 55.85 43.7501 52.84 42.1401 49.47C40.5501 46.15 39.88 42.4799 40.2 38.6599C40.49 35.2599 41.5701 31.74 43.5001 28.24C40.1501 28.36 36.8301 28.61 33.5601 29C33.1301 29.63 32.7101 30.2599 32.3101 30.9099C29.3001 35.7899 27.5901 40.73 27.1001 45.51C26.5901 50.36 27.3401 55.0501 29.2501 59.3101C31.1901 63.6401 34.3201 67.53 38.5601 70.72H38.57Z" fill="#002E67"/>
<path d="M127.62 60.95C124.66 65.78 120.84 70.25 116.35 74.25C110.41 79.55 103.34 83.9901 95.63 87.3501C87.9 90.7201 79.59 92.9699 71.19 93.8899C62.84 94.8199 54.47 94.41 46.58 92.52C38.8 90.65 32.26 87.51 27.13 83.46C22.08 79.49 18.3801 74.6601 16.1601 69.3101C13.9701 64.0701 13.1901 58.3199 13.9201 52.4099C14.6301 46.5999 16.79 40.6 20.49 34.71C21.35 33.35 22.28 32.02 23.26 30.72C19.45 31.54 15.7101 32.54 12.0401 33.73C10.8401 35.28 9.71007 36.88 8.66007 38.51C4.23007 45.43 1.57001 52.4901 0.600007 59.3701C-0.389993 66.3901 0.38009 73.22 2.81009 79.5C5.30009 85.91 9.52003 91.7401 15.37 96.5701C21.34 101.49 28.9901 105.34 38.1701 107.68C47.4801 110.05 57.41 110.61 67.35 109.56C77.34 108.51 87.25 105.84 96.46 101.79C105.65 97.77 114.05 92.43 121.1 86.05C126.76 80.94 131.51 75.18 135.05 68.96C132.7 66.17 130.22 63.4899 127.61 60.9399L127.62 60.95Z" fill="#002E67"/>
</svg>
