<svg width="50" height="48" viewBox="0 0 50 48" fill="none" xmlns="http://www.w3.org/2000/svg">
<path d="M25.0001 28.1101C27.3529 28.1101 29.2601 26.2564 29.2601 23.97C29.2601 21.6835 27.3529 19.8301 25.0001 19.8301C22.6474 19.8301 20.7401 21.6835 20.7401 23.97C20.7401 26.2564 22.6474 28.1101 25.0001 28.1101Z" stroke="#5DC0CF" stroke-width="1.57" stroke-linecap="round" stroke-linejoin="round"/>
<path d="M25.0001 9.48999C27.3529 9.48999 29.2601 7.63656 29.2601 5.3501C29.2601 3.06364 27.3529 1.20996 25.0001 1.20996C22.6474 1.20996 20.7401 3.06364 20.7401 5.3501C20.7401 7.63656 22.6474 9.48999 25.0001 9.48999Z" stroke="#5DC0CF" stroke-width="1.57" stroke-linecap="round" stroke-linejoin="round"/>
<path d="M11.4601 14.9399C13.8128 14.9399 15.7201 13.0865 15.7201 10.8C15.7201 8.51359 13.8128 6.65991 11.4601 6.65991C9.10735 6.65991 7.20007 8.51359 7.20007 10.8C7.20007 13.0865 9.10735 14.9399 11.4601 14.9399Z" stroke="#5DC0CF" stroke-width="1.57" stroke-linecap="round" stroke-linejoin="round"/>
<path d="M5.8501 28.1101C8.20283 28.1101 10.1101 26.2564 10.1101 23.97C10.1101 21.6835 8.20283 19.8301 5.8501 19.8301C3.49736 19.8301 1.59009 21.6835 1.59009 23.97C1.59009 26.2564 3.49736 28.1101 5.8501 28.1101Z" stroke="#5DC0CF" stroke-width="1.57" stroke-linecap="round" stroke-linejoin="round"/>
<path d="M11.4601 41.27C13.8128 41.27 15.7201 39.4163 15.7201 37.1299C15.7201 34.8434 13.8128 32.99 11.4601 32.99C9.10735 32.99 7.20007 34.8434 7.20007 37.1299C7.20007 39.4163 9.10735 41.27 11.4601 41.27Z" stroke="#5DC0CF" stroke-width="1.57" stroke-linecap="round" stroke-linejoin="round"/>
<path d="M25.0001 46.72C27.3529 46.72 29.2601 44.8665 29.2601 42.5801C29.2601 40.2936 27.3529 38.4399 25.0001 38.4399C22.6474 38.4399 20.7401 40.2936 20.7401 42.5801C20.7401 44.8665 22.6474 46.72 25.0001 46.72Z" stroke="#5DC0CF" stroke-width="1.57" stroke-linecap="round" stroke-linejoin="round"/>
<path d="M38.5402 41.27C40.8929 41.27 42.8002 39.4163 42.8002 37.1299C42.8002 34.8434 40.8929 32.99 38.5402 32.99C36.1874 32.99 34.2802 34.8434 34.2802 37.1299C34.2802 39.4163 36.1874 41.27 38.5402 41.27Z" stroke="#5DC0CF" stroke-width="1.57" stroke-linecap="round" stroke-linejoin="round"/>
<path d="M44.1501 28.1101C46.5029 28.1101 48.4102 26.2564 48.4102 23.97C48.4102 21.6835 46.5029 19.8301 44.1501 19.8301C41.7974 19.8301 39.8901 21.6835 39.8901 23.97C39.8901 26.2564 41.7974 28.1101 44.1501 28.1101Z" stroke="#5DC0CF" stroke-width="1.57" stroke-linecap="round" stroke-linejoin="round"/>
<path d="M38.5402 14.9399C40.8929 14.9399 42.8002 13.0865 42.8002 10.8C42.8002 8.51359 40.8929 6.65991 38.5402 6.65991C36.1874 6.65991 34.2802 8.51359 34.2802 10.8C34.2802 13.0865 36.1874 14.9399 38.5402 14.9399Z" stroke="#5DC0CF" stroke-width="1.57" stroke-linecap="round" stroke-linejoin="round"/>
<path d="M25.0001 19.8301V9.48999" stroke="#5DC0CF" stroke-width="1.57" stroke-linecap="round" stroke-linejoin="round"/>
<path d="M21.9901 21.04L14.4701 13.73" stroke="#5DC0CF" stroke-width="1.57" stroke-linecap="round" stroke-linejoin="round"/>
<path d="M20.7401 23.97H10.1101" stroke="#5DC0CF" stroke-width="1.57" stroke-linecap="round" stroke-linejoin="round"/>
<path d="M21.9901 26.8899L14.4701 34.2" stroke="#5DC0CF" stroke-width="1.57" stroke-linecap="round" stroke-linejoin="round"/>
<path d="M25.0001 28.1001V38.4399" stroke="#5DC0CF" stroke-width="1.57" stroke-linecap="round" stroke-linejoin="round"/>
<path d="M28.0101 26.8899L35.5302 34.2" stroke="#5DC0CF" stroke-width="1.57" stroke-linecap="round" stroke-linejoin="round"/>
<path d="M29.2601 23.97H39.8901" stroke="#5DC0CF" stroke-width="1.57" stroke-linecap="round" stroke-linejoin="round"/>
<path d="M28.0101 21.04L35.5302 13.73" stroke="#5DC0CF" stroke-width="1.57" stroke-linecap="round" stroke-linejoin="round"/>
</svg>
