<svg width="55" height="54" viewBox="0 0 55 54" fill="none" xmlns="http://www.w3.org/2000/svg">
<path d="M20.15 28.6201L25.58 34.05L34.56 25.0801" stroke="#5DC0CF" stroke-width="1.57" stroke-linecap="round" stroke-linejoin="round"/>
<path d="M33.7401 40.1299L36.8701 52.27C46.5101 48.39 53.3201 38.9399 53.3201 27.9099C53.3201 13.4099 41.5701 1.65991 27.0701 1.65991C12.5701 1.65991 0.820068 13.4099 0.820068 27.9099C0.820068 38.9399 7.63005 48.39 17.2701 52.27L20.4201 40.1399C16.0401 37.7699 13.0701 33.1401 13.0701 27.8201C13.0701 20.0901 19.3401 13.8201 27.0701 13.8201C34.8001 13.8201 41.0701 20.0901 41.0701 27.8201C41.0701 33.1401 38.1001 37.7699 33.7401 40.1399" stroke="#5DC0CF" stroke-width="1.57" stroke-linecap="round" stroke-linejoin="round"/>
</svg>
