<svg width="48" height="48" viewBox="0 0 48 48" fill="none" xmlns="http://www.w3.org/2000/svg">
<path d="M12.74 7.71997V20.72L24 27.22L35.26 20.72V7.71997L24 1.21997L12.74 7.71997Z" stroke="#5DC0CF" stroke-width="1.57" stroke-linecap="round" stroke-linejoin="round"/>
<path d="M12.74 7.71997L24 14.22L35.26 7.71997" stroke="#5DC0CF" stroke-width="1.57" stroke-linecap="round" stroke-linejoin="round"/>
<path d="M24 14.22V27.22" stroke="#5DC0CF" stroke-width="1.57" stroke-linecap="round" stroke-linejoin="round"/>
<path d="M1.47998 27.22V40.22L12.74 46.72L24 40.22V27.22L12.74 20.72L1.47998 27.22Z" stroke="#5DC0CF" stroke-width="1.57" stroke-linecap="round" stroke-linejoin="round"/>
<path d="M1.47998 27.22L12.74 33.72L24 27.22" stroke="#5DC0CF" stroke-width="1.57" stroke-linecap="round" stroke-linejoin="round"/>
<path d="M12.74 33.72V46.72" stroke="#5DC0CF" stroke-width="1.57" stroke-linecap="round" stroke-linejoin="round"/>
<path d="M24 27.22V40.22L35.26 46.72L46.52 40.22V27.22L35.26 20.72L24 27.22Z" stroke="#5DC0CF" stroke-width="1.57" stroke-linecap="round" stroke-linejoin="round"/>
<path d="M24 27.22L35.26 33.72L46.52 27.22" stroke="#5DC0CF" stroke-width="1.57" stroke-linecap="round" stroke-linejoin="round"/>
<path d="M35.26 33.72V46.72" stroke="#5DC0CF" stroke-width="1.57" stroke-linecap="round" stroke-linejoin="round"/>
</svg>
