<svg width="48" height="60" viewBox="0 0 48 60" fill="none" xmlns="http://www.w3.org/2000/svg">
<path d="M18.05 35.3899L12.62 29.97L18.05 24.54" stroke="#5DC0CF" stroke-width="1.57" stroke-linecap="round" stroke-linejoin="round"/>
<path d="M29.95 24.54L35.3799 29.97L29.95 35.3899" stroke="#5DC0CF" stroke-width="1.57" stroke-linecap="round" stroke-linejoin="round"/>
<path d="M20.96 37.8899L27.0399 22.04" stroke="#5DC0CF" stroke-width="1.57" stroke-linecap="round" stroke-linejoin="round"/>
<path d="M28.16 7.59009C38.74 9.55009 46.75 18.82 46.75 29.96C46.75 42.52 36.56 52.71 24 52.71" stroke="#5DC0CF" stroke-width="1.57" stroke-linecap="round" stroke-linejoin="round"/>
<path d="M29.22 46.27L30.29 47.4299L24.6 52.71L30.29 58L29.22 59.1599L22.29 52.71L29.22 46.27Z" fill="#5DC0CF"/>
<path d="M19.78 52.3201C9.23003 50.3401 1.25 41.08 1.25 29.96C1.25 17.4 11.44 7.20996 24 7.20996" stroke="#5DC0CF" stroke-width="1.57" stroke-linecap="round" stroke-linejoin="round"/>
<path d="M18.78 13.6599L17.71 12.5L23.4 7.21997L17.71 1.92993L18.78 0.780029L25.71 7.21997L18.78 13.6599Z" fill="#5DC0CF"/>
</svg>
