<svg width="56" height="55" viewBox="0 0 56 55" fill="none" xmlns="http://www.w3.org/2000/svg">
<path d="M5.33997 17.4199C7.27296 17.4199 8.83997 15.8529 8.83997 13.9199C8.83997 11.9869 7.27296 10.4199 5.33997 10.4199C3.40697 10.4199 1.83997 11.9869 1.83997 13.9199C1.83997 15.8529 3.40697 17.4199 5.33997 17.4199Z" stroke="#5DC0CF" stroke-width="1.57" stroke-linecap="round" stroke-linejoin="round"/>
<path d="M39.36 17.4199C41.293 17.4199 42.86 15.8529 42.86 13.9199C42.86 11.9869 41.293 10.4199 39.36 10.4199C37.427 10.4199 35.86 11.9869 35.86 13.9199C35.86 15.8529 37.427 17.4199 39.36 17.4199Z" stroke="#5DC0CF" stroke-width="1.57" stroke-linecap="round" stroke-linejoin="round"/>
<path d="M16.58 43.6699C18.513 43.6699 20.08 42.1029 20.08 40.1699C20.08 38.2369 18.513 36.6699 16.58 36.6699C14.647 36.6699 13.08 38.2369 13.08 40.1699C13.08 42.1029 14.647 43.6699 16.58 43.6699Z" stroke="#5DC0CF" stroke-width="1.57" stroke-linecap="round" stroke-linejoin="round"/>
<path d="M40.1899 17.3201C40.7899 20.3301 41.12 23.61 41.12 27.05C41.12 41.55 35.24 53.3 28 53.3C23.86 53.3 20.16 49.46 17.76 43.47" stroke="#5DC0CF" stroke-width="1.57" stroke-linecap="round" stroke-linejoin="round"/>
<path d="M15.8 36.76C15.2 33.76 14.87 30.48 14.87 27.05C14.87 12.55 20.75 0.800049 27.99 0.800049C32.13 0.800049 35.82 4.63011 38.22 10.6101" stroke="#5DC0CF" stroke-width="1.57" stroke-linecap="round" stroke-linejoin="round"/>
<path d="M28 0.790039V53.29" stroke="#5DC0CF" stroke-width="1.57" stroke-linecap="round" stroke-linejoin="round"/>
<path d="M8.83997 13.9199H35.86" stroke="#5DC0CF" stroke-width="1.57" stroke-linecap="round" stroke-linejoin="round"/>
<path d="M42.86 13.9199H50.74" stroke="#5DC0CF" stroke-width="1.57" stroke-linecap="round" stroke-linejoin="round"/>
<path d="M1.75 27.04H54.25" stroke="#5DC0CF" stroke-width="1.57" stroke-linecap="round" stroke-linejoin="round"/>
<path d="M20.08 40.1699H50.67" stroke="#5DC0CF" stroke-width="1.57" stroke-linecap="round" stroke-linejoin="round"/>
<path d="M5.33997 40.1699H13.08" stroke="#5DC0CF" stroke-width="1.57" stroke-linecap="round" stroke-linejoin="round"/>
<path d="M7.23999 10.98C12.04 4.77998 19.56 0.790039 28 0.790039C42.5 0.790039 54.25 12.54 54.25 27.04C54.25 41.54 42.5 53.29 28 53.29C13.5 53.29 1.75 41.54 1.75 27.04C1.75 23.49 2.44998 20.11 3.72998 17.02" stroke="#5DC0CF" stroke-width="1.57" stroke-linecap="round" stroke-linejoin="round"/>
</svg>
