<svg width="54" height="54" viewBox="0 0 54 54" fill="none" xmlns="http://www.w3.org/2000/svg">
<path d="M29.3 24.75L49.7501 4.29004" stroke="#5DC0CF" stroke-width="1.57" stroke-linecap="round" stroke-linejoin="round"/>
<path d="M16.63 37.4198C10.9 31.6898 10.9 22.4098 16.63 16.6798C22.36 10.9498 31.64 10.9498 37.37 16.6798" stroke="#5DC0CF" stroke-width="1.57" stroke-linecap="round" stroke-linejoin="round"/>
<path d="M27 7.54004V1.04004" stroke="#5DC0CF" stroke-width="1.57" stroke-linecap="round" stroke-linejoin="round"/>
<path d="M34.46 9.03003L36.95 3.02002" stroke="#5DC0CF" stroke-width="1.57" stroke-linecap="round" stroke-linejoin="round"/>
<path d="M45.02 19.5801L51.02 17.1001" stroke="#5DC0CF" stroke-width="1.57" stroke-linecap="round" stroke-linejoin="round"/>
<path d="M46.5 27.04H53" stroke="#5DC0CF" stroke-width="1.57" stroke-linecap="round" stroke-linejoin="round"/>
<path d="M45.02 34.51L51.02 36.99" stroke="#5DC0CF" stroke-width="1.57" stroke-linecap="round" stroke-linejoin="round"/>
<path d="M40.79 40.8301L45.3801 45.4299" stroke="#5DC0CF" stroke-width="1.57" stroke-linecap="round" stroke-linejoin="round"/>
<path d="M34.46 45.0601L36.95 51.0701" stroke="#5DC0CF" stroke-width="1.57" stroke-linecap="round" stroke-linejoin="round"/>
<path d="M27 46.54V53.04" stroke="#5DC0CF" stroke-width="1.57" stroke-linecap="round" stroke-linejoin="round"/>
<path d="M19.54 45.0601L17.05 51.0701" stroke="#5DC0CF" stroke-width="1.57" stroke-linecap="round" stroke-linejoin="round"/>
<path d="M13.21 40.8301L8.62 45.4299" stroke="#5DC0CF" stroke-width="1.57" stroke-linecap="round" stroke-linejoin="round"/>
<path d="M8.97998 34.51L2.97998 36.99" stroke="#5DC0CF" stroke-width="1.57" stroke-linecap="round" stroke-linejoin="round"/>
<path d="M7.5 27.04H1" stroke="#5DC0CF" stroke-width="1.57" stroke-linecap="round" stroke-linejoin="round"/>
<path d="M8.97998 19.5801L2.97998 17.1001" stroke="#5DC0CF" stroke-width="1.57" stroke-linecap="round" stroke-linejoin="round"/>
<path d="M13.21 13.26L8.62 8.65991" stroke="#5DC0CF" stroke-width="1.57" stroke-linecap="round" stroke-linejoin="round"/>
<path d="M19.54 9.03003L17.05 3.02002" stroke="#5DC0CF" stroke-width="1.57" stroke-linecap="round" stroke-linejoin="round"/>
<path d="M27 30.29C28.7949 30.29 30.25 28.835 30.25 27.04C30.25 25.2451 28.7949 23.79 27 23.79C25.2051 23.79 23.75 25.2451 23.75 27.04C23.75 28.835 25.2051 30.29 27 30.29Z" stroke="#5DC0CF" stroke-width="1.57" stroke-linecap="round" stroke-linejoin="round"/>
</svg>
